<svg height="512pt" viewBox="-19 0 512 512.00002" width="512pt" xmlns="http://www.w3.org/2000/svg"><path d="m431.171875 182.785156c-.894531 0-1.78125.039063-2.664063.09375l-15.976562 26.761719 15.976562 57.996094c.882813.054687 1.769532.089843 2.664063.089843 23.457031 0 42.46875-19.015624 42.46875-42.46875 0-23.457031-19.011719-42.472656-42.46875-42.472656zm0 0" fill="#ffcec0"/><path d="m42.46875 182.785156c.898438 0 1.785156.039063 2.667969.09375l15.976562 26.761719-15.976562 57.996094c-.882813.054687-1.769531.089843-2.667969.089843-23.453125 0-42.46875-19.015624-42.46875-42.46875 0-23.457031 19.015625-42.472656 42.46875-42.472656zm0 0" fill="#ffcec0"/><path d="m166.289062 388.835938s-48.988281 42.789062-48.988281 123.164062h48.988281l17.992188-56.539062zm0 0" fill="#c68c6a"/><path d="m307.351562 388.835938s48.988282 42.789062 48.988282 123.164062h-48.988282l-17.992187-56.539062zm0 0" fill="#c68c6a"/><path d="m313.496094 456.847656c11.527344 0 22.347656-3.0625 31.707031-8.414062-14.457031-39.15625-37.851563-59.597656-37.851563-59.597656l-17.175781 63.597656c7.378907 2.882812 15.277344 4.414062 23.320313 4.414062zm0 0" fill="#a67052"/><path d="m160.148438 456.847656c8.039062 0 15.941406-1.53125 23.316406-4.414062l-17.175782-63.59375s-23.394531 20.441406-37.847656 59.597656c9.355469 5.347656 20.179688 8.410156 31.707032 8.410156zm0 0" fill="#a67052"/><path d="m166.289062 388.835938h141.0625v123.164062h-141.0625zm0 0" fill="#a5d0d8"/><path d="m166.289062 456.546875c6.421876-.617187 12.691407-2.195313 18.59375-4.664063 11.65625 16.089844 30.59375 26.574219 51.9375 26.574219s40.285157-10.484375 51.9375-26.574219c5.90625 2.46875 12.171876 4.046876 18.59375 4.664063v-67.710937h-141.0625zm0 0" fill="#92c3cc"/><path d="m239.042969 235.558594c-1.46875-.289063-2.976563-.289063-4.445313 0h-189.460937v135.585937c0 21.175781 17.164062 38.339844 38.335937 38.339844s38.335938-17.164063 38.335938-38.339844v21.613281c0 21.171876 17.164062 38.335938 38.339844 38.335938 19.117187 0 34.964843-14 37.859374-32.304688.15625.035157.316407.070313.476563.101563v15.476563c0 21.171874 17.164063 38.335937 38.335937 38.335937 21.175782 0 38.339844-17.164063 38.339844-38.335937v-15.476563c.15625-.035156.316406-.070313.472656-.101563 2.894532 18.304688 18.742188 32.304688 37.863282 32.304688 21.171875 0 38.335937-17.164062 38.335937-38.335938v-21.613281c0 21.175781 17.164063 38.339844 38.335938 38.339844 21.175781 0 38.339843-17.164063 38.339843-38.339844v-135.585937zm0 0" fill="#f5615e"/><path d="m209.679688 1.722656c-117.523438 15.261719-155.875 127.011719-155.875 127.011719l155.878906 17.777344 27.136718-74.835938zm0 0" fill="#aeaeb2"/><path d="m263.960938 1.722656-27.140626 69.953125 27.140626 74.835938 155.875-17.777344s-38.347657-111.75-155.875-127.011719zm0 0" fill="#aeaeb2"/><path d="m263.960938 1.722656v144.789063l-27.140626 3.101562-27.140624-3.101562v-144.789063c8.613281-1.117187 17.664062-1.722656 27.140624-1.722656 9.476563 0 18.527344.605469 27.140626 1.722656zm0 0" fill="#ffc471"/><path d="m163.136719 285.78125s-18.6875 16.234375-14.566407 43.015625c0 0 64.558594 9.273437 88.25-32.621094 23.695313 41.894531 88.253907 32.621094 88.253907 32.621094 4.121093-26.78125-14.570313-43.015625-14.570313-43.015625l-.195312-17.074219-73.488282-59.066406-75.203124 53.914063zm0 0" fill="#f77f82"/><path d="m45.136719 168.589844v66.96875c0 15.589844 26.8125 31.164062 38.410156 37.988281 16.246094 9.5625 34.519531 15.417969 53.472656 15.417969 34.523438 0 65.257813-16.167969 85.066407-41.34375 3.550781-4.515625 8.992187-7.132813 14.734374-7.132813 5.746094 0 11.1875 2.617188 14.738282 7.132813 19.804687 25.175781 50.542968 41.34375 85.066406 41.34375 18.953125 0 37.226562-5.855469 53.472656-15.417969 11.597656-6.824219 38.410156-22.398437 38.410156-37.988281v-66.96875c-2.644531 1.210937-380.730468 1.210937-383.371093 0zm0 0" fill="#d2d2d2"/><path d="m428.507812 168.589844c-2.652343 1.210937-380.730468 1.210937-383.371093 0v29.882812h383.371093zm0 0" fill="#aeaeb2"/><path d="m88.789062 170.492188v16.382812c0 29.925781 24.257813 54.1875 54.183594 54.1875 29.925782 0 54.1875-24.261719 54.1875-54.1875v-16.382812zm0 0" fill="#ffe1d7"/><path d="m384.855469 170.492188v16.382812c0 29.925781-24.261719 54.1875-54.1875 54.1875s-54.183594-24.261719-54.183594-54.1875v-16.382812zm0 0" fill="#ffe1d7"/><path d="m88.789062 186.875c0 3.984375.441407 7.859375 1.253907 11.597656h105.859375c.816406-3.738281 1.257812-7.613281 1.257812-11.597656v-16.382812h-108.371094zm0 0" fill="#ffcec0"/><path d="m384.855469 186.875c0 3.984375-.441407 7.859375-1.257813 11.597656h-105.859375c-.8125-3.738281-1.253906-7.613281-1.253906-11.597656v-16.382812h108.371094zm0 0" fill="#ffcec0"/><path d="m148.625 170.492188v24.246093c0 4.269531-3.460938 7.726563-7.726562 7.726563-4.269532 0-7.726563-3.457032-7.726563-7.726563v-24.246093zm0 0" fill="#57565c"/><path d="m340.472656 170.492188v24.246093c0 4.269531-3.460937 7.726563-7.726562 7.726563-4.269532 0-7.726563-3.457032-7.726563-7.726563v-24.246093zm0 0" fill="#57565c"/><path d="m419.839844 128.738281h-366.039063c-11.527343 0-20.875 9.347657-20.875 20.878907 0 11.527343 9.347657 20.875 20.875 20.875h366.039063c11.53125 0 20.875-9.347657 20.875-20.875 0-11.53125-9.34375-20.878907-20.875-20.878907zm0 0" fill="#ffb85c"/></svg>