<?xml version="1.0" encoding="utf-8"?>
<!-- Svg Vector Icons : http://www.onlinewebfonts.com/icon -->
<!DOCTYPE svg PUBLIC "-//W3C//DTD SVG 1.1//EN" "http://www.w3.org/Graphics/SVG/1.1/DTD/svg11.dtd">
<svg version="1.1" xmlns="http://www.w3.org/2000/svg" xmlns:xlink="http://www.w3.org/1999/xlink" x="0px" y="0px" viewBox="0 0 1000 1000" enable-background="new 0 0 1000 1000" xml:space="preserve">
<metadata> Svg Vector Icons : http://www.onlinewebfonts.com/icon </metadata>
<g><path d="M500,10C236.3,10,22.6,229.4,22.6,500c0,270.6,213.8,490,477.4,490c263.7,0,477.4-219.4,477.4-490C977.4,229.4,763.7,10,500,10z M643.3,940.1c-23,4.6-31.1-9.9-31.1-22.3c0-15.2,0.5-65.2,0.5-127.2c0-43.3-14.5-71.6-30.7-86c100.8-11.4,206.5-50.7,206.5-228.8c0-50.6-17.5-92.1-46.5-124.5c4.6-11.7,20.2-58.8-4.5-122.7c0,0-37.9-12.5-124.3,47.6c-36.1-10.3-74.8-15.5-113.2-15.7c-38.5,0.2-77.2,5.3-113.2,15.7c-86.4-60-124.4-47.6-124.4-47.6c-24.6,63.9-9.1,111-4.4,122.7c-28.9,32.4-46.5,73.8-46.5,124.5c0,177.7,105.6,217.5,206,229.2c-12.9,11.6-24.6,32-28.7,62c-25.8,11.8-91.3,32.3-131.6-38.6c0,0-23.9-44.5-69.3-47.8c0,0-44.2-0.6-3.1,28.2c0,0,29.7,14.2,50.2,67.8c0,0,26.6,90.2,152.4,62.2c0.2,38.7,0.6,67.9,0.6,78.9c0,12.3-8.2,26.6-30.9,22.3c-179.8-61.3-309.3-235.1-309.3-440C47.7,244,250.2,36.4,500,36.4c249.8,0,452.3,207.6,452.3,463.8C952.3,705,822.8,878.7,643.3,940.1z"/></g>
</svg>