<svg height="512pt" viewBox="0 -27 512 512" width="512pt" xmlns="http://www.w3.org/2000/svg"><path d="m512 345.277344v73.554687c0 5.691407-4.613281 10.304688-10.300781 10.304688h-179.457031v-83.859375c0-24.84375 20.140624-44.988282 44.988281-44.988282h99.78125c24.847656 0 44.988281 20.144532 44.988281 44.988282zm0 0" fill="#eb5777"/><path d="m393.3125 347.121094v82.015625h-71.070312v-83.859375c0-24.847656 20.140624-44.988282 44.988281-44.988282h8.609375c10.890625 12.570313 17.472656 28.949219 17.472656 46.832032zm0 0" fill="#ce3f63"/><path d="m418.195312 325.621094c-8.46875 0-15.335937-6.867188-15.335937-15.335938v-43.019531h30.671875v43.019531c0 8.46875-6.867188 15.335938-15.335938 15.335938zm0 0" fill="#e39f6e"/><path d="m337.0625 207.273438h162.265625l4.28125-20.875c11.085937-54.070313-30.222656-104.699219-85.414063-104.699219-55.191406 0-96.496093 50.628906-85.410156 104.699219zm0 0" fill="#ba6f3c"/><path d="m508.378906 215.441406c0 11.40625-9.242187 20.648438-20.648437 20.648438-11.402344 0-20.644531-9.242188-20.644531-20.648438 0-11.402344 9.242187-20.644531 20.644531-20.644531 11.40625 0 20.648437 9.242187 20.648437 20.644531zm0 0" fill="#e39f6e"/><path d="m369.304688 215.445312c0 11.402344-9.238282 20.648438-20.648438 20.648438-11.402344 0-20.648438-9.246094-20.648438-20.648438 0-1.742187.210938-3.441406.632813-5.058593 2.25-8.949219 10.355469-15.589844 20.015625-15.589844 9.785156 0 17.976562 6.808594 20.101562 15.941406.355469 1.507813.546876 3.089844.546876 4.707031zm0 0" fill="#e39f6e"/><path d="m368.757812 210.738281c-5.828124 3.347657-12.574218 5.253907-19.765624 5.253907-7.429688 0-14.386719-2.046876-20.351563-5.605469 2.25-8.949219 10.355469-15.589844 20.015625-15.589844 9.785156 0 17.976562 6.808594 20.101562 15.941406zm0 0" fill="#d88852"/><path d="m353.210938 157.691406 7.078124 56.667969 2.683594 21.492187c3.480469 27.847657 27.160156 48.75 55.21875 48.75 28.070313 0 51.75-20.902343 55.222656-48.75l9.761719-78.160156zm0 0" fill="#f8c298"/><path d="m388.855469 176.132812c0 18.0625-12.078125 33.347657-28.566407 38.226563l-7.589843-60.746094h29.179687c4.402344 6.417969 6.976563 14.167969 6.976563 22.519531zm0 0" fill="#e39f6e"/><path d="m387.96875 221.988281c-4.171875 0-7.605469-3.324219-7.71875-7.515625l-.089844-3.273437c-.117187-4.265625 3.246094-7.816407 7.511719-7.933594 4.269531-.132813 7.816406 3.246094 7.933594 7.511719l.089843 3.273437c.117188 4.265625-3.246093 7.816407-7.511718 7.933594-.074219 0-.144532.003906-.214844.003906zm0 0" fill="#aa5b26"/><path d="m448.507812 221.988281c-4.171874 0-7.605468-3.324219-7.722656-7.515625l-.089844-3.273437c-.117187-4.265625 3.246094-7.816407 7.515626-7.933594 4.269531-.132813 7.816406 3.246094 7.933593 7.511719l.089844 3.273437c.117187 4.265625-3.246094 7.816407-7.511719 7.933594-.074218 0-.144531.003906-.214844.003906zm0 0" fill="#aa5b26"/><path d="m418.195312 250.992188c-9.726562 0-18.941406-4.710938-24.65625-12.601563-2.503906-3.457031-1.730468-8.285156 1.726563-10.789063 3.457031-2.503906 8.285156-1.730468 10.789063 1.726563 2.816406 3.890625 7.355468 6.210937 12.140624 6.210937 4.785157 0 9.328126-2.320312 12.144532-6.210937 2.503906-3.457031 7.332031-4.230469 10.789062-1.726563 3.457032 2.503907 4.230469 7.332032 1.726563 10.789063-5.714844 7.890625-14.933594 12.601563-24.660157 12.601563zm0 0" fill="#e39f6e"/><path d="m358.886719 436.859375c-4.269531 0-7.726563-3.457031-7.726563-7.722656v-70.234375c0-4.265625 3.457032-7.726563 7.726563-7.726563 4.265625 0 7.722656 3.460938 7.722656 7.726563v70.234375c.003906 4.265625-3.457031 7.722656-7.722656 7.722656zm0 0"/><path d="m483.074219 358.898438v70.238281h-15.453125v-70.238281c0-4.265626 3.460937-7.726563 7.726562-7.726563 4.273438 0 7.726563 3.460937 7.726563 7.726563zm0 0" fill="#ce3f63"/><path d="m341.066406 159.296875s13.855469 13.742187 51.164063 14.738281c2.359375.0625 4.292969-1.835937 4.292969-4.195312v-5.535156s13.566406 8.898437 42.3125 9.726562c2.359374.066406 4.292968-1.835938 4.292968-4.195312v-3.140626s11.179688 6.824219 44.683594 7.363282c2.339844.035156 4.253906-1.859375 4.253906-4.195313v-20.371093c0-2.667969-2.164062-4.828126-4.828125-4.828126h-131.539062c-8.082031 0-14.632813 6.550782-14.632813 14.632813zm0 0" fill="#ba6f3c"/><path d="m392.300781 181.761719c-.105469 0-.210937-.003907-.316406-.003907-24.300781-.652343-39.601563-6.457031-48.15625-11.210937-3.730469-2.074219-5.070313-6.777344-3-10.507813 2.074219-3.730468 6.777344-5.070312 10.507813-3 5.449218 3.027344 17.359374 8.074219 37.460937 9.128907v-1.863281c0-2.839844 1.558594-5.453126 4.058594-6.800782 2.496093-1.351562 5.535156-1.21875 7.90625.339844.0625.039062 11.351562 7 34.660156 8.308594.167969-2.644532 1.578125-5.097656 3.929687-6.355469 2.492188-1.332031 5.378907-1.28125 7.738282.257813.921875.472656 11.222656 5.445312 37.863281 6.210937 4.265625.121094 7.625 3.675781 7.503906 7.945313-.125 4.261718-3.6875 7.617187-7.945312 7.5-17.457031-.5-28.953125-2.703126-36.027344-4.742188-.375.496094-.789063.96875-1.242187 1.410156-2.300782 2.234375-5.464844 3.457032-8.671876 3.371094-16.253906-.46875-28.132812-3.433594-35.789062-6.164062-.5625 1.015624-1.277344 1.953124-2.132812 2.785156-2.222657 2.164062-5.25 3.390625-8.347657 3.390625zm0 0" fill="#aa5b26"/><path d="m189.757812 345.277344v83.859375h-179.457031c-5.6875 0-10.300781-4.613281-10.300781-10.304688v-73.554687c0-24.84375 20.140625-44.988282 44.988281-44.988282h99.78125c24.847657 0 44.988281 20.144532 44.988281 44.988282zm0 0" fill="#4fceb7"/><path d="m189.757812 345.277344v83.859375h-71.070312v-82.015625c0-17.882813 6.582031-34.261719 17.472656-46.832032h8.609375c24.847657 0 44.988281 20.140626 44.988281 44.988282zm0 0" fill="#3db4a0"/><path d="m95.960938 325.621094c-8.472657 0-15.335938-6.867188-15.335938-15.335938v-43.019531h30.671875v43.019531c0 8.46875-6.867187 15.335938-15.335937 15.335938zm0 0" fill="#e39f6e"/><path d="m14.824219 207.273438h162.269531l4.28125-20.875c11.082031-54.070313-30.222656-104.699219-85.414062-104.699219-55.191407 0-96.496094 50.628906-85.414063 104.699219zm0 0" fill="#ba6f3c"/><path d="m186.144531 215.445312c0 11.402344-9.246093 20.648438-20.648437 20.648438-11.398438 0-20.648438-9.246094-20.648438-20.648438 0-1.742187.210938-3.441406.632813-5.058593 2.25-8.949219 10.355469-15.589844 20.015625-15.589844 9.785156 0 17.988281 6.808594 20.101562 15.949219.359375 1.511718.546875 3.082031.546875 4.699218zm0 0" fill="#e39f6e"/><path d="m185.597656 210.746094c-5.828125 3.335937-12.574218 5.246094-19.753906 5.246094-7.429688 0-14.398438-2.046876-20.363281-5.605469 2.25-8.949219 10.355469-15.589844 20.015625-15.589844 9.789062 0 17.988281 6.808594 20.101562 15.949219zm0 0" fill="#d88852"/><path d="m47.070312 215.441406c0 11.40625-9.242187 20.648438-20.644531 20.648438-11.40625 0-20.648437-9.242188-20.648437-20.648438 0-11.402344 9.242187-20.644531 20.648437-20.644531 11.402344 0 20.644531 9.242187 20.644531 20.644531zm0 0" fill="#e39f6e"/><path d="m30.976562 157.691406 9.761719 78.160156c3.484375 27.847657 27.152344 48.75 55.222657 48.75 28.070312 0 51.738281-20.902343 55.222656-48.75l2.710937-21.683593 7.050781-56.476563zm0 0" fill="#f8c298"/><path d="m130.523438 157.691406c-2.894532 5.523438-4.539063 11.789063-4.539063 18.441406 0 17.820313 11.75 32.945313 27.910156 38.035157l7.050781-56.472657h-30.421874zm0 0" fill="#e39f6e"/><path d="m65.730469 221.988281c-4.167969 0-7.601563-3.324219-7.71875-7.515625l-.089844-3.273437c-.117187-4.265625 3.246094-7.816407 7.511719-7.933594 4.285156-.132813 7.820312 3.246094 7.9375 7.511719l.089844 3.273437c.117187 4.265625-3.246094 7.816407-7.511719 7.933594-.074219 0-.144531.003906-.21875.003906zm0 0" fill="#aa5b26"/><path d="m126.269531 221.988281c-4.167969 0-7.605469-3.324219-7.71875-7.515625l-.089843-3.273437c-.117188-4.265625 3.246093-7.816407 7.511718-7.933594 4.285156-.132813 7.816406 3.246094 7.933594 7.511719l.089844 3.273437c.117187 4.265625-3.242188 7.816407-7.511719 7.933594-.070313 0-.144531.003906-.214844.003906zm0 0" fill="#aa5b26"/><path d="m95.960938 250.992188c-9.726563 0-18.945313-4.710938-24.660157-12.601563-2.503906-3.457031-1.730469-8.285156 1.726563-10.789063 3.457031-2.503906 8.285156-1.730468 10.789062 1.726563 2.816406 3.890625 7.359375 6.210937 12.144532 6.210937 4.785156 0 9.324218-2.320312 12.140624-6.210937 2.503907-3.457031 7.332032-4.230469 10.789063-1.726563 3.457031 2.503907 4.230469 7.332032 1.726563 10.789063-5.714844 7.890625-14.929688 12.601563-24.65625 12.601563zm0 0" fill="#e39f6e"/><path d="m44.378906 358.898438v70.238281h-15.449218v-70.238281c0-4.265626 3.449218-7.726563 7.722656-7.726563 4.265625 0 7.726562 3.460937 7.726562 7.726563zm0 0" fill="#3db4a0"/><path d="m153.113281 436.859375c-4.265625 0-7.722656-3.457031-7.722656-7.722656v-70.234375c0-4.265625 3.457031-7.726563 7.722656-7.726563 4.269531 0 7.726563 3.460938 7.726563 7.726563v70.234375c0 4.265625-3.457032 7.722656-7.726563 7.722656zm0 0"/><path d="m18.828125 159.296875s13.855469 13.742187 51.164063 14.738281c2.359374.0625 4.296874-1.835937 4.296874-4.195312v-5.535156s13.566407 8.898437 42.308594 9.726562c2.363282.066406 4.296875-1.835938 4.296875-4.195312v-3.140626s11.179688 6.824219 44.683594 7.363282c2.335937.035156 4.25-1.859375 4.25-4.195313v-20.371093c0-2.667969-2.160156-4.828126-4.824219-4.828126h-131.539062c-8.082032 0-14.636719 6.550782-14.636719 14.632813zm0 0" fill="#ba6f3c"/><path d="m165.554688 181.78125c-.042969 0-.082032 0-.125 0-19.242188-.308594-31.691407-2.652344-39.183594-4.808594-.371094.496094-.785156.964844-1.238282 1.40625-2.300781 2.234375-5.464843 3.460938-8.671874 3.371094-16.253907-.46875-28.136719-3.433594-35.789063-6.164062-.5625 1.015624-1.277344 1.953124-2.136719 2.789062-2.296875 2.234375-5.460937 3.476562-8.660156 3.382812-21.636719-.582031-35.996094-5.328124-44.234375-9.207031-3.863281-1.820312-5.519531-6.421875-3.699219-10.285156 1.816406-3.859375 6.421875-5.511719 10.28125-3.695313 6.453125 3.039063 17.546875 6.714844 34.464844 7.597657v-1.863281c0-2.839844 1.558594-5.453126 4.058594-6.800782 2.496094-1.351562 5.535156-1.21875 7.90625.339844.066406.039062 11.355468 7 34.660156 8.308594.167969-2.644532 1.578125-5.097656 3.929688-6.355469 2.492187-1.332031 5.378906-1.28125 7.734374.257813.957032.492187 11.984376 5.808593 40.828126 6.277343 4.265624.066407 7.667968 3.582031 7.601562 7.851563-.070312 4.222656-3.515625 7.597656-7.726562 7.597656zm0 0" fill="#aa5b26"/><path d="m380.949219 347.121094v100.125c0 5.6875-4.609375 10.300781-10.300781 10.300781h-229.296876c-5.691406 0-10.300781-4.613281-10.300781-10.300781v-100.125c0-32.726563 26.523438-59.253906 59.246094-59.253906h131.40625c32.722656 0 59.246094 26.527343 59.246094 59.253906zm0 0" fill="#a9d2f7"/><path d="m179.3125 319.929688v15.886718c0 3.6875 2.988281 6.675782 6.675781 6.675782 4.445313 0 7.652344 4.265624 6.410157 8.539062l-5.371094 18.488281c-.582032 2.007813-.1875 4.175781 1.0625 5.851563l25.246094 33.828125v-121.332031l-31.675782 26.984374c-1.488281 1.265626-2.347656 3.125-2.347656 5.078126zm0 0" fill="#5f9eeb"/><path d="m335.527344 319.929688v15.886718c0 3.6875-2.988282 6.675782-6.675782 6.675782-4.449218 0-7.652343 4.265624-6.410156 8.539062l5.367188 18.488281c.585937 2.007813.191406 4.175781-1.058594 5.851563l-25.246094 33.828125v-121.332031l31.675782 26.984374c1.488281 1.265626 2.347656 3.125 2.347656 5.078126zm0 0" fill="#5f9eeb"/><path d="m213.332031 287.867188h88.175781v169.683593h-88.175781zm0 0" fill="#627687"/><path d="m380.949219 347.109375v100.136719c0 5.691406-4.609375 10.300781-10.300781 10.300781h-9.886719v-110.425781c0-32.71875-26.535157-59.253906-59.253907-59.253906h20.199219c32.71875 0 59.242188 26.523437 59.242188 59.242187zm0 0" fill="#7fb7ea"/><path d="m257.421875 321.230469c-11.15625 0-20.199219-9.042969-20.199219-20.195313v-56.65625h40.394532v56.65625c0 11.152344-9.042969 20.195313-20.195313 20.195313zm0 0" fill="#f8c298"/><path d="m150.570312 165.371094h213.695313l5.636719-27.488282c14.597656-71.203124-39.800782-137.882812-112.480469-137.882812-72.6875 0-127.082031 66.679688-112.484375 137.882812zm0 0" fill="#ffcf64"/><path d="m359 99.992188c-4.265625 0-7.726562 3.460937-7.726562 7.726562v16.578125c-6.039063-.105469-15.042969-.605469-25.390626-2.296875v15.617188c11.121094 1.671874 20.585938 2.101562 26.664063 2.152343h.125c3.730469 0 7.242187-1.445312 9.894531-4.074219 2.683594-2.660156 4.160156-6.207031 4.160156-9.988281v-17.988281c0-4.265625-3.457031-7.726562-7.726562-7.726562zm0 0" fill="#efc40f"/><path d="m157.132812 99.992188c4.265626 0 7.722657 3.460937 7.722657 7.726562v16.578125c6.042969-.105469 15.042969-.605469 25.394531-2.296875v15.617188c-11.121094 1.671874-20.585938 2.101562-26.667969 2.152343-.042969 0-.082031 0-.121093 0-3.734376 0-7.242188-1.445312-9.898438-4.074219-2.679688-2.660156-4.160156-6.207031-4.160156-9.988281v-17.988281c.003906-4.265625 3.460937-7.726562 7.730468-7.726562zm0 0" fill="#efc40f"/><path d="m376.1875 176.132812c0 15.019532-12.175781 27.191407-27.195312 27.191407-15.015626 0-27.191407-12.171875-27.191407-27.191407 0-15.015624 12.175781-27.191406 27.191407-27.191406 15.019531 0 27.195312 12.175782 27.195312 27.191406zm0 0" fill="#f8c298"/><path d="m193.035156 176.132812c0 15.019532-12.171875 27.191407-27.191406 27.191407-15.015625 0-27.191406-12.171875-27.191406-27.191407 0-15.015624 12.175781-27.191406 27.191406-27.191406 15.019531 0 27.191406 12.175782 27.191406 27.191406zm0 0" fill="#f8c298"/><path d="m176.300781 135.785156 8.394531 67.21875c4.582032 36.679688 35.761719 64.207032 72.722657 64.207032 36.964843 0 68.140625-27.527344 72.722656-64.207032l8.394531-67.21875c2.511719-20.09375-13.15625-37.84375-33.40625-37.84375h-95.417968c-20.25 0-35.921876 17.75-33.410157 37.84375zm0 0" fill="#ffd6c0"/><path d="m217.613281 182.304688c-4.167969 0-7.605469-3.324219-7.71875-7.515626l-.117187-4.3125c-.117188-4.265624 3.246094-7.816406 7.511718-7.933593 4.234376-.125 7.816407 3.246093 7.933594 7.511719l.117188 4.308593c.117187 4.269531-3.246094 7.820313-7.511719 7.9375-.070313 0-.144531.003907-.214844.003907zm0 0" fill="#4fceb7"/><path d="m297.335938 182.304688c-4.167969 0-7.605469-3.324219-7.71875-7.515626l-.117188-4.3125c-.117188-4.265624 3.246094-7.816406 7.511719-7.933593 4.230469-.125 7.816406 3.246093 7.933593 7.511719l.121094 4.308593c.117188 4.269531-3.246094 7.820313-7.511718 7.9375-.074219 0-.148438.003907-.21875.003907zm0 0" fill="#4fceb7"/><path d="m257.421875 220.503906c-12.027344 0-23.425781-5.828125-30.492187-15.585937-2.503907-3.457031-1.730469-8.285157 1.726562-10.789063 3.457031-2.5 8.289062-1.730468 10.789062 1.726563 4.167969 5.757812 10.890626 9.195312 17.976563 9.195312s13.804687-3.4375 17.972656-9.195312c2.5-3.457031 7.332031-4.230469 10.789063-1.726563 3.457031 2.503906 4.226562 7.332032 1.726562 10.789063-7.066406 9.757812-18.464844 15.585937-30.488281 15.585937zm0 0" fill="#f8c298"/><path d="m187.039062 396.445312v61.101563h-15.453124v-61.101563c0-4.261718 3.460937-7.722656 7.726562-7.722656s7.726562 3.460938 7.726562 7.722656zm0 0" fill="#7fb7ea"/><path d="m340.414062 396.445312v61.101563h-15.453124v-61.101563c0-4.261718 3.460937-7.722656 7.726562-7.722656s7.726562 3.460938 7.726562 7.722656zm0 0" fill="#7fb7ea"/><path d="m164.867188 86.433594v36.402344c0 3.519531 2.867187 6.363281 6.390624 6.335937 16.582032-.144531 56.628907-3.035156 86.8125-25.8125 30.1875 22.777344 70.234376 25.667969 86.816407 25.8125 3.523437.027344 6.386719-2.816406 6.386719-6.335937v-36.402344zm0 0" fill="#ffcf64"/></svg>