<svg height="512pt" viewBox="-115 0 512 512" width="512pt" xmlns="http://www.w3.org/2000/svg"><path d="m279.640625 388.429688v113.269531c0 5.6875-4.609375 10.300781-10.300781 10.300781h-259.039063c-5.6875 0-10.300781-4.613281-10.300781-10.300781v-113.269531c0-36.617188 29.683594-66.300782 66.300781-66.300782h147.039063c36.617187 0 66.300781 29.683594 66.300781 66.300782zm0 0" fill="#ebeef2"/><path d="m279.644531 388.414062v113.28125c0 5.691407-4.613281 10.300782-10.304687 10.300782h-12.289063v-123.566406c0-36.613282-29.691406-66.308594-66.304687-66.308594h22.601562c36.617188 0 66.296875 29.683594 66.296875 66.292968zm0 0" fill="#d3d8df"/><path d="m54.011719 449.488281h171.625v62.511719h-171.625zm0 0" fill="#7fb7ea"/><path d="m141.414062 359.457031c-12.484374 0-22.601562-10.117187-22.601562-22.601562v-63.394531h45.199219v63.394531c0 12.484375-10.117188 22.601562-22.597657 22.601562zm0 0" fill="#e39f6e"/><path d="m269.9375 129.039062c-.03125 6.203126-.523438 12.476563-1.503906 18.800782-.328125 2.144531-.710938 4.296875-1.152344 6.449218l-6.304688 30.761719h-239.125l-6.304687-30.761719c-9.066406-44.226562 5.652344-86.90625 34.46875-116.109374 23.085937-23.40625 55.21875-38.179688 91.398437-38.179688 55.441407 0 101.390626 34.6875 119.839844 82.011719 2.617188 6.71875 4.675782 13.683593 6.140625 20.84375.101563.523437.214844 1.058593.308594 1.59375 1.144531 5.976562 1.855469 12.085937 2.121094 18.277343.09375 2.101563.136719 4.203126.113281 6.3125zm0 0" fill="#627687"/><g fill="#455e6d"><path d="m52.160156 140.761719c-.003906 0-.007812 0-.011718 0-6.367188-.050781-11.640626-.671875-15.308594-1.277344-3.742188-.039063-7.054688 2.640625-7.675782 6.449219-.703124 4.214844 2.140626 8.191406 6.355469 8.890625 5.929688.984375 16.046875 2.042969 28.285157.855469v-15.476563c-4.164063.4375-8.074219.585937-11.644532.558594zm0 0"/><path d="m225.542969 147.351562v15.503907c14.886719-2.640625 29.257812-7.648438 42.890625-15.011719.90625-5.863281 1.378906-11.679688 1.472656-17.4375-14.996094 8.9375-29.953125 14.246094-44.363281 16.945312zm0 0"/><path d="m267.703125 104.449219-40.042969-25.515625c-3.59375-2.296875-4.644531-7.070313-2.359375-10.675782 2.296875-3.59375 7.066407-4.644531 10.671875-2.359374l25.28125 16.113281c2.617188 6.71875 4.679688 13.679687 6.140625 20.839843.101563.527344.214844 1.0625.308594 1.597657zm0 0"/></g><path d="m274.3125 197.09375c0 16.804688-13.621094 30.429688-30.425781 30.429688-16.804688 0-30.429688-13.625-30.429688-30.429688s13.625-30.425781 30.429688-30.425781c16.804687 0 30.425781 13.621093 30.425781 30.425781zm0 0" fill="#e39f6e"/><path d="m69.367188 197.09375c0 16.804688-13.621094 30.429688-30.425782 30.429688-16.804687 0-30.429687-13.625-30.429687-30.429688s13.625-30.425781 30.429687-30.425781c16.804688 0 30.425782 13.621093 30.425782 30.425781zm0 0" fill="#e39f6e"/><path d="m141.414062 299.007812c-41.363281 0-76.25-30.800781-81.378906-71.84375l-15.136718-121.183593h193.027343l-15.136719 121.183593c-5.125 41.042969-40.015624 71.84375-81.375 71.84375zm0 0" fill="#f8c298"/><path d="m31.171875 138.308594s41.671875 11.765625 79.941406-16.167969c0 0 85.460938 60.59375 168.617188 1.898437 4.21875-2.976562 4.109375-9.269531-.246094-12.042968l-51.65625-32.925782h-196.65625zm0 0" fill="#627687"/><path d="m95.28125 203.078125c-4.171875 0-7.605469-3.320313-7.71875-7.515625l-.132812-4.824219c-.117188-4.265625 3.246093-7.816406 7.511718-7.933593 4.273438-.125 7.816406 3.246093 7.933594 7.511718l.132812 4.824219c.117188 4.265625-3.246093 7.816406-7.511718 7.933594-.070313.003906-.144532.003906-.214844.003906zm0 0" fill="#aa5b26"/><path d="m184.492188 203.078125c-4.171876 0-7.605469-3.320313-7.71875-7.515625l-.132813-4.824219c-.117187-4.265625 3.246094-7.816406 7.511719-7.933593 4.273437-.125 7.820312 3.246093 7.9375 7.511718l.128906 4.824219c.117188 4.265625-3.246094 7.816406-7.511719 7.933594-.070312.003906-.144531.003906-.214843.003906zm0 0" fill="#aa5b26"/><path d="m139.824219 245.824219c-13.164063 0-25.640625-6.378907-33.375-17.058594-2.503907-3.457031-1.730469-8.285156 1.726562-10.789063 3.457031-2.503906 8.289063-1.730468 10.789063 1.726563 4.839844 6.679687 12.636718 10.667969 20.859375 10.667969 8.222656 0 16.019531-3.988282 20.859375-10.667969 2.5-3.457031 7.332031-4.230469 10.789062-1.726563 3.457032 2.503907 4.226563 7.332032 1.726563 10.789063-7.734375 10.679687-20.210938 17.058594-33.375 17.058594zm0 0" fill="#e39f6e"/><path d="m61.738281 408.496094v103.503906h-15.453125v-103.503906c0-4.261719 3.460938-7.722656 7.726563-7.722656 4.265625-.003907 7.726562 3.460937 7.726562 7.722656zm0 0" fill="#d3d8df"/><path d="m233.367188 408.496094v103.503906h-15.453126v-103.503906c0-4.261719 3.460938-7.722656 7.726563-7.722656 4.265625-.003907 7.726563 3.460937 7.726563 7.722656zm0 0" fill="#d3d8df"/></svg>