<?xml version="1.0" standalone="no"?><!DOCTYPE svg PUBLIC "-//W3C//DTD SVG 1.1//EN" "http://www.w3.org/Graphics/SVG/1.1/DTD/svg11.dtd"><svg t="1568124001712" class="icon" viewBox="0 0 1024 1024" version="1.1" xmlns="http://www.w3.org/2000/svg" p-id="981" xmlns:xlink="http://www.w3.org/1999/xlink" width="200" height="200"><defs><style type="text/css"></style></defs><path d="M183.136 558.528c-27.68 68.992-32.288 134.752-9.984 146.976 15.424 8.48 39.456-10.912 62.08-46.208 8.96 38.656 31.104 73.344 62.72 101.376-33.12 12.896-54.816 33.984-54.816 57.824 0 39.264 58.592 70.976 130.848 70.976 65.184 0 119.2-25.728 129.184-59.648h15.52c10.176 33.92 64.064 59.648 129.344 59.648 72.352 0 130.848-31.712 130.848-70.976 0-23.84-21.664-44.768-54.848-57.824 31.52-28.032 53.792-62.72 62.688-101.376 22.624 35.296 46.528 54.688 62.016 46.208 22.432-12.224 17.952-77.984-10.016-146.976-21.856-54.016-51.456-93.888-74.016-102.816a108.384 108.384 0 0 0-14.496-66.4 60.608 60.608 0 0 0-5.728-30.112c-5.696-140.608-92.672-252.384-233.504-252.384-140.8 0-227.872 111.808-233.568 252.384a62.624 62.624 0 0 0-5.92 26.496c0 1.248 0 2.432 0.16 3.712a109.44 109.44 0 0 0-14.912 55.968c0 3.52 0.192 7.04 0.416 10.464-22.464 8.864-52.192 48.672-74.016 102.688z" p-id="982"></path></svg>