<?xml version="1.0" standalone="no"?><!DOCTYPE svg PUBLIC "-//W3C//DTD SVG 1.1//EN" "http://www.w3.org/Graphics/SVG/1.1/DTD/svg11.dtd"><svg t="1568124004235" class="icon" viewBox="0 0 1024 1024" version="1.1" xmlns="http://www.w3.org/2000/svg" p-id="1106" xmlns:xlink="http://www.w3.org/1999/xlink" width="200" height="200"><defs><style type="text/css"></style></defs><path d="M674.4 358.978c10.683 0 21.218 0.782 31.651 1.916-28.425-130.997-169.982-228.35-331.548-228.35-180.643 0-328.625 121.849-328.625 276.559 0 89.289 49.243 162.624 131.501 219.504l-32.863 97.845 114.868-57.019c41.129 8.039 74.091 16.33 115.119 16.33 10.307 0 20.513-0.502 30.67-1.308-6.427-21.724-10.157-44.505-10.157-68.119 0.001-142.060 123.285-257.357 279.383-257.357zM497.738 270.799c24.747 0 41.127 16.128 41.127 40.599 0 24.369-16.381 40.7-41.127 40.7-24.647 0-49.345-16.331-49.345-40.7 0-24.471 24.698-40.599 49.345-40.599zM267.75 352.097c-24.647 0-49.497-16.331-49.497-40.7 0-24.471 24.849-40.599 49.497-40.599 24.621 0 41.027 16.128 41.027 40.599 0 24.37-16.406 40.7-41.027 40.7zM974.345 612.428c0-130.014-131.475-235.986-279.13-235.986-156.35 0-279.484 105.972-279.484 235.986 0 130.203 123.133 235.948 279.484 235.948 32.71 0 65.725-8.116 98.586-16.281l90.148 48.839-24.724-81.249c65.98-48.991 115.12-113.923 115.12-187.258zM604.59 571.727c-16.354 0-32.862-16.103-32.862-32.535 0-16.204 16.507-32.509 32.862-32.509 24.849 0 41.129 16.305 41.129 32.509 0 16.432-16.281 32.535-41.129 32.535zM785.334 571.727c-16.227 0-32.635-16.103-32.635-32.535 0-16.204 16.406-32.509 32.635-32.509 24.647 0 41.129 16.305 41.129 32.509 0 16.432-16.481 32.535-41.129 32.535z" p-id="1107"></path></svg>